<svg width="100" height="100" viewBox="0 0 100 100" fill="none" xmlns="http://www.w3.org/2000/svg">
<path d="M20 8.33331C20 7.97969 20.1405 7.63952 20.3905 7.38951C20.6405 7.1395 20.9806 6.99998 21.3333 6.99998H78.6667C79.0194 6.99998 79.3595 7.1395 79.6095 7.38951C79.8595 7.63952 80 7.97969 80 8.33331V91.6666C80 92.0202 79.8595 92.3604 79.6095 92.6104C79.3595 92.8604 79.0194 93 78.6667 93H21.3333C20.9806 93 20.6405 92.8604 20.3905 92.6104C20.1405 92.3604 20 92.0202 20 91.6666V8.33331Z" stroke="#D87093" stroke-width="8" stroke-linecap="round" stroke-linejoin="round"/>
<path d="M50 81.6667C58.2843 81.6667 65 74.951 65 66.6667C65 58.3824 58.2843 51.6667 50 51.6667C41.7157 51.6667 35 58.3824 35 66.6667C35 74.951 41.7157 81.6667 50 81.6667Z" stroke="#D87093" stroke-width="8" stroke-linecap="round" stroke-linejoin="round"/>
<path d="M60.3167 40.3C59.2015 38.0734 57.653 36.1447 55.7874 34.6648C53.9218 33.1849 51.7924 32.1932 49.531 31.7699C47.2696 31.3467 44.9385 31.5035 42.7469 32.227C40.5552 32.9505 38.5679 34.2201 36.9667 35.9167" stroke="#D87093" stroke-width="8" stroke-linecap="round" stroke-linejoin="round"/>
</svg>
