<svg width="120" height="120" viewBox="0 0 24 24" fill="none" xmlns="http://www.w3.org/2000/svg">
<path d="M4 19.5V4.5C4 3.12 5.12 2 6.5 2H20V22H6.5C5.12 22 4 20.88 4 19.5Z" fill="#D87093"/>
<path d="M4 19.5C4 20.88 5.12 22 6.5 22H20V2H6.5C5.12 2 4 3.12 4 4.5V19.5ZM4 19.5H6.5C5.12 19.5 4 18.38 4 17V7C4 5.62 5.12 4.5 6.5 4.5" stroke="#D87093" stroke-width="0.5" stroke-linecap="round" stroke-linejoin="round"/>
<path d="M15.63 12.16C16.48 11.23 17 10.01 17 8.69C17 6.65 15.34 5 13.3 5C12.03 5 10.88 5.68 10.22 6.71L10 7.09L9.78 6.71C9.12 5.68 7.97 5 6.7 5C4.66 5 3 6.65 3 8.69C3 10.01 3.52 11.23 4.37 12.16L10 17L15.63 12.16Z" fill="white"/>
</svg>
