<svg width="512" height="512" viewBox="0 0 512 512" fill="none" xmlns="http://www.w3.org/2000/svg">
<path d="M432 70.158V402.316C432 423.868 412.35 442 387.421 442H156.421C131.492 442 112 423.868 112 402.316V70.158C112 48.6059 131.492 30.4737 156.421 30.4737H387.421C412.35 30.4737 432 48.6059 432 70.158Z" fill="#D87093"/>
<path d="M256 442V30.4737H244" fill="#D87093"/>
<path fill-rule="evenodd" clip-rule="evenodd" d="M256 442V30.4737H244V442H256ZM156.421 70.158V402.316H168.421V82.158L244 70.158V424.158L168.421 414.158V402.316H156.421ZM387.421 70.158H156.421V58.4737H387.421C418.992 58.4737 444 82.3217 444 110.158V402.316C444 430.152 418.992 454 387.421 454H156.421C124.85 454 100 430.152 100 402.316V70.158C100 41.7638 124.85 18.4737 156.421 18.4737H387.421C418.992 18.4737 444 41.7638 444 70.158V110.158H432V70.158ZM387.421 82.158V414.158L316 424.158V70.158L387.421 82.158Z" fill="white"/>
</svg>
