<svg width="120" height="120" viewBox="0 0 24 24" fill="none" xmlns="http://www.w3.org/2000/svg">
<path fill-rule="evenodd" clip-rule="evenodd" d="M12 2C8.68629 2 6 4.68629 6 8C6 11.3137 8.68629 14 12 14C12.7912 14 13.5413 13.8993 14.2324 13.7145C14.1063 13.8058 14 13.9113 14 14.0202C14 14.6714 14.5376 15.209 15.1888 15.209C15.84 15.209 16.3776 14.6714 16.3776 14.0202C16.3776 13.9113 16.2713 13.8058 16.1452 13.7145C18.1565 12.4284 19.5 10.3853 19.5 8C19.5 4.68629 16.8137 2 13.5 2H12Z" fill="none"/>
<path d="M4 19V5C4 3.89543 4.89543 3 6 3H17C18.1046 3 19 3.89543 19 5V17L11.5 13L4 17Z" fill="hsl(var(--primary))"/>
<path fill-rule="evenodd" clip-rule="evenodd" d="M12 4.41379C10.8475 4.41379 9.88206 5.09419 9.38206 6.00001C8.88206 6.90582 9.04353 8.01252 9.75 8.75001C10.5516 9.58334 12 11.5 12 11.5C12 11.5 13.4484 9.58334 14.25 8.75001C14.9565 8.01252 15.1179 6.90582 14.6179 6.00001C14.1179 5.09419 13.1525 4.41379 12 4.41379Z" fill="hsl(var(--background))"/>
</svg>
