<svg width="1024" height="256" viewBox="0 0 1024 256" fill="none" xmlns="http://www.w3.org/2000/svg">
  <path d="M216 41.0789V201.158C216 212.934 206.175 222 195.711 222H83.2105C72.7461 222 63 212.934 63 201.158V41.0789C63 29.3026 72.7461 20.2368 83.2105 20.2368H195.711C206.175 20.2368 216 29.3026 216 41.0789Z" fill="#D87093"/>
  <path d="M139.5 222V20.2368H133.5" fill="#D87093"/>
  <path fill-rule="evenodd" clip-rule="evenodd" d="M139.5 222V20.2368H133.5V222H139.5ZM83.2105 41.0789V201.158H89.2105V47.0789L133.5 41.0789V213.079L89.2105 208.079V201.158H83.2105ZM195.711 41.0789H83.2105V35.2368H195.711C210.096 35.2368 222 46.1623 222 59.0789V201.158C222 214.075 210.096 225 195.711 225H83.2105C68.8246 225 57 214.075 57 201.158V41.0789C57 28.1623 68.8246 17.2368 83.2105 17.2368H195.711C210.096 17.2368 222 28.1623 222 41.0789V59.0789H216V41.0789ZM195.711 47.0789V208.079L164.5 213.079V41.0789L195.711 47.0789Z" fill="white"/>
  <text x="250" y="160" font-family="'Playfair Display', serif" font-size="120" fill="#D87093" font-weight="700">FirstLook</text>
</svg>
